<svg width="3898" height="4758" xmlns="http://www.w3.org/2000/svg" xmlns:xlink="http://www.w3.org/1999/xlink" overflow="hidden"><defs><clipPath id="clip0"><rect x="1299" y="869" width="3898" height="4758"/></clipPath></defs><g clip-path="url(#clip0)" transform="translate(-1299 -869)"><rect x="1299" y="871" width="3898" height="857"/><path d="M4933.13 1374.44 4933.13 1648.89 4995.63 1648.89C5019.01 1648.89 5035.89 1647.57 5046.26 1644.94 5059.83 1641.54 5071.1 1635.8 5080.05 1627.69 5089.01 1619.59 5096.32 1606.26 5101.97 1587.7 5107.63 1569.14 5110.46 1543.84 5110.46 1511.81 5110.46 1479.77 5107.63 1455.18 5101.97 1438.04 5096.32 1420.89 5088.4 1407.51 5078.21 1397.9 5068.03 1388.29 5055.12 1381.79 5039.47 1378.4 5027.78 1375.76 5004.87 1374.44 4970.74 1374.44ZM3743.86 1368.79C3709.35 1368.79 3681.54 1380.61 3660.43 1404.26 3639.31 1427.91 3628.75 1463.57 3628.75 1511.24 3628.75 1558.16 3639.59 1593.73 3661.27 1617.94 3682.96 1642.16 3710.48 1654.26 3743.86 1654.26 3777.23 1654.26 3804.62 1642.25 3826.02 1618.23 3847.42 1594.2 3858.12 1558.16 3858.12 1510.11 3858.12 1462.63 3847.7 1427.2 3826.87 1403.83 3806.03 1380.47 3778.36 1368.79 3743.86 1368.79ZM4849.41 1304.34 5002.42 1304.34C5036.92 1304.34 5063.22 1306.98 5081.33 1312.26 5105.65 1319.42 5126.48 1332.14 5143.83 1350.41 5161.18 1368.69 5174.37 1391.07 5183.42 1417.54 5192.48 1444.02 5197 1476.66 5197 1515.48 5197 1549.59 5192.76 1578.98 5184.27 1603.67 5173.9 1633.82 5159.1 1658.22 5139.87 1676.88 5125.35 1691.01 5105.74 1702.03 5081.04 1709.95 5062.57 1715.79 5037.87 1718.71 5006.94 1718.71L4849.41 1718.71ZM4430.87 1304.34 4512.32 1304.34 4682.01 1581.06 4682.01 1304.34 4759.79 1304.34 4759.79 1718.71 4675.79 1718.71 4508.65 1448.49 4508.65 1718.71 4430.87 1718.71ZM4009.78 1304.34 4093.5 1304.34 4093.5 1528.77C4093.5 1564.38 4094.53 1587.46 4096.61 1598.02 4100.19 1614.98 4108.72 1628.59 4122.2 1638.86 4135.68 1649.13 4154.12 1654.26 4177.49 1654.26 4201.25 1654.26 4219.16 1649.41 4231.23 1639.71 4243.3 1630 4250.56 1618.08 4253.01 1603.95 4255.46 1589.82 4256.68 1566.36 4256.68 1533.57L4256.68 1304.34 4340.4 1304.34 4340.4 1521.98C4340.4 1571.73 4338.14 1606.87 4333.61 1627.41 4329.09 1647.95 4320.74 1665.29 4308.58 1679.42 4296.42 1693.55 4280.16 1704.81 4259.8 1713.2 4239.43 1721.58 4212.85 1725.77 4180.04 1725.77 4140.45 1725.77 4110.42 1721.21 4089.96 1712.07 4069.5 1702.93 4053.34 1691.06 4041.46 1676.45 4029.58 1661.85 4021.75 1646.54 4017.98 1630.52 4012.52 1606.78 4009.78 1571.73 4009.78 1525.37ZM3743.01 1297.27C3804.1 1297.27 3852.98 1316.21 3889.65 1354.09 3926.32 1391.96 3944.66 1444.63 3944.66 1512.09 3944.66 1578.98 3926.47 1631.32 3890.08 1669.1 3853.69 1706.88 3805.04 1725.77 3744.14 1725.77 3682.48 1725.77 3633.46 1706.98 3597.07 1669.39 3560.68 1631.79 3542.49 1580.02 3542.49 1514.07 3542.49 1471.86 3548.8 1436.43 3561.44 1407.79 3570.86 1386.69 3583.73 1367.75 3600.04 1350.98 3616.35 1334.21 3634.22 1321.77 3653.64 1313.67 3679.47 1302.74 3709.26 1297.27 3743.01 1297.27ZM2946.19 1114.59 2753.14 1401.4 2946.19 1401.4ZM1642.69 1114.59 1449.65 1401.4 1642.69 1401.4ZM2250.91 1002.39C2231.43 1002.39 2214.05 1008.59 2198.78 1020.99 2183.5 1033.4 2171.67 1055.63 2163.26 1087.69 2152.19 1129.29 2146.65 1199.32 2146.65 1297.79 2146.65 1396.25 2151.62 1463.9 2161.54 1500.73 2171.47 1537.56 2183.98 1562.08 2199.06 1574.29 2214.15 1586.51 2231.43 1592.61 2250.91 1592.61 2270.38 1592.61 2287.76 1586.41 2303.03 1574.01 2318.31 1561.6 2330.15 1539.37 2338.55 1507.31 2349.62 1466.09 2355.16 1396.25 2355.16 1297.79 2355.16 1199.32 2350.19 1131.67 2340.27 1094.84 2330.34 1058.01 2317.83 1033.4 2302.75 1020.99 2287.66 1008.59 2270.38 1002.39 2250.91 1002.39ZM3809.79 940.548C3775.27 940.548 3747.44 952.379 3726.31 976.04 3705.19 999.701 3694.62 1035.38 3694.62 1083.08 3694.62 1130.02 3705.47 1165.61 3727.16 1189.84 3748.86 1214.06 3776.4 1226.18 3809.79 1226.18 3843.18 1226.18 3870.58 1214.16 3891.99 1190.12 3913.41 1166.08 3924.11 1130.02 3924.11 1081.95 3924.11 1034.44 3913.69 998.994 3892.84 975.616 3872 952.238 3844.31 940.548 3809.79 940.548ZM4046.71 876.07 4376.37 876.07 4376.37 946.204 4253.56 946.204 4253.56 1290.66 4169.8 1290.66 4169.8 946.204 4046.71 946.204ZM3206.25 876.07 3287.74 876.07 3457.53 1152.93 3457.53 876.07 3535.34 876.07 3535.34 1290.66 3451.3 1290.66 3284.06 1020.3 3284.06 1290.66 3206.25 1290.66ZM3808.94 869C3870.06 869 3918.97 887.948 3955.66 925.843 3992.35 963.738 4010.7 1016.43 4010.7 1083.93 4010.7 1150.86 3992.5 1203.22 3956.09 1241.02 3919.68 1278.82 3871.01 1297.73 3810.07 1297.73 3748.39 1297.73 3699.34 1278.92 3662.93 1241.31 3626.52 1203.69 3608.32 1151.89 3608.32 1085.91 3608.32 1043.68 3614.64 1008.23 3627.27 979.575 3636.71 958.459 3649.58 939.511 3665.9 922.732 3682.22 905.952 3700.09 893.509 3719.52 885.402 3745.37 874.467 3775.17 869 3808.94 869ZM2966.81 869 3101.99 869 3101.99 1401.4 3206.25 1401.4 3206.25 1304.34 3490.48 1304.34 3490.48 1374.44 3289.96 1374.44 3289.96 1472.52 3463.05 1472.52 3463.05 1542.62 3289.96 1542.62 3289.96 1718.71 3206.25 1718.71 3206.25 1542.81 3101.99 1542.81 3101.99 1711.69 2946.19 1711.69 2946.19 1542.81 2602.49 1542.81 2602.49 1401.98ZM2250.91 869C2332.25 869 2395.83 898.005 2441.66 956.017 2496.26 1024.71 2523.57 1138.64 2523.57 1297.79 2523.57 1456.55 2496.07 1570.67 2441.08 1640.13 2395.64 1697.38 2332.25 1726 2250.91 1726 2169.18 1726 2103.31 1694.61 2053.28 1631.83 2003.25 1569.05 1978.24 1457.13 1978.24 1296.07 1978.24 1138.06 2005.74 1024.33 2060.73 954.872 2106.17 897.624 2169.56 869 2250.91 869ZM1663.32 869 1798.5 869 1798.5 1401.4 1902.76 1401.4 1902.76 1542.81 1798.5 1542.81 1798.5 1711.69 1642.69 1711.69 1642.69 1542.81 1299 1542.81 1299 1401.98Z" fill="#FFFFFF" fill-rule="evenodd"/><rect x="2819" y="1730" width="858" height="3897"/></g></svg>