<svg width="259" height="259" xmlns="http://www.w3.org/2000/svg" xmlns:xlink="http://www.w3.org/1999/xlink" overflow="hidden"><defs><clipPath id="clip0"><path d="M511 231 770 231 770 490 511 490Z" fill-rule="evenodd" clip-rule="evenodd"/></clipPath></defs><g clip-path="url(#clip0)" transform="translate(-511 -231)"><path d="M754.761 489C762.624 489 769 482.624 769 474.759L769 245.24C769 237.374 762.625 231 754.761 231L525.24 231C517.374 231 511 237.374 511 245.24L511 474.759C511 482.623 517.373 489 525.24 489L754.761 489Z" fill="#727272" fill-rule="evenodd"/><path d="M688.996 489 688.996 389.104 722.607 389.104 727.64 350.172 688.996 350.172 688.996 325.317C688.996 314.045 692.134 306.364 708.336 306.364L729 306.355 729 271.534C725.426 271.06 713.16 270 698.888 270 669.094 270 648.697 288.143 648.697 321.461L648.697 350.172 615 350.172 615 389.104 648.697 389.104 648.697 489 688.996 489Z" fill="#FFFFFF" fill-rule="evenodd"/></g></svg>