<svg width="1513" height="379" xmlns="http://www.w3.org/2000/svg" xmlns:xlink="http://www.w3.org/1999/xlink" overflow="hidden"><defs><clipPath id="clip0"><path d="M73 76 1586 76 1586 455 73 455Z" fill-rule="evenodd" clip-rule="evenodd"/></clipPath></defs><g clip-path="url(#clip0)" transform="translate(-73 -76)"><rect x="74" y="77" width="1511" height="377" fill="#F5F5F5"/><path d="M345.142 199.308C342.5 199.338 340.189 199.948 338.208 201.138 336.227 202.328 334.661 203.916 333.512 205.902 332.362 207.888 331.713 210.091 331.565 212.511L357.915 212.511C357.875 209.942 357.323 207.668 356.258 205.691 355.194 203.713 353.711 202.161 351.811 201.032 349.911 199.904 347.688 199.329 345.142 199.308ZM376.997 189.726 390.465 189.726 400.319 229.225 400.829 229.225 410.902 189.726 424.224 189.726 434.296 229.006 434.844 229.006 444.552 189.726 458.055 189.726 442.18 245.903 428.421 245.903 417.91 207.939 417.143 207.939 406.632 245.903 392.837 245.903ZM489.241 188.994C495.815 189.049 500.988 190.457 504.761 193.218 508.534 195.98 510.879 199.765 511.796 204.575L499.752 205.891C499.415 204.642 498.823 203.488 497.974 202.429 497.126 201.37 495.995 200.517 494.583 199.869 493.171 199.221 491.451 198.887 489.423 198.869 486.607 198.9 484.302 199.497 482.507 200.661 480.713 201.825 479.795 203.374 479.752 205.306 479.71 206.921 480.314 208.253 481.563 209.302 482.812 210.35 484.848 211.188 487.672 211.816L497.234 213.864C502.519 215.006 506.465 216.828 509.072 219.332 511.679 221.836 512.989 225.085 513 229.079 512.952 232.651 511.916 235.776 509.891 238.455 507.866 241.134 505.064 243.222 501.486 244.719 497.908 246.215 493.765 246.976 489.059 247 482.139 246.96 476.616 245.513 472.489 242.657 468.362 239.801 465.868 235.775 465.008 230.578L477.891 229.335C478.471 231.863 479.71 233.774 481.609 235.068 483.507 236.362 485.978 237.011 489.022 237.015 492.203 236.975 494.728 236.333 496.595 235.091 498.462 233.848 499.417 232.246 499.46 230.286 499.467 228.698 498.851 227.375 497.612 226.318 496.374 225.26 494.471 224.449 491.905 223.885L482.343 221.874C476.974 220.75 472.996 218.856 470.409 216.191 467.822 213.527 466.545 210.142 466.577 206.038 466.595 202.557 467.548 199.546 469.436 197.002 471.323 194.46 473.963 192.494 477.355 191.105 480.748 189.716 484.709 189.012 489.241 188.994ZM344.959 188.994C349.619 188.98 353.877 189.972 357.733 191.972 361.589 193.971 364.679 197.066 367.003 201.256 369.327 205.446 370.519 210.819 370.58 217.375L370.58 221.435 331.529 221.435C331.639 226.279 332.97 230.023 335.521 232.668 338.071 235.312 341.51 236.652 345.835 236.686 348.709 236.682 351.174 236.069 353.23 234.848 355.287 233.628 356.776 231.827 357.697 229.445L370.032 230.834C369.238 234.108 367.753 236.952 365.577 239.366 363.401 241.779 360.629 243.65 357.261 244.979 353.893 246.308 350.024 246.981 345.653 247 339.997 246.97 335.141 245.782 331.084 243.436 327.027 241.09 323.909 237.764 321.73 233.46 319.551 229.155 318.45 224.049 318.427 218.143 318.457 212.326 319.56 207.239 321.737 202.881 323.914 198.524 326.983 195.13 330.943 192.699 334.904 190.268 339.576 189.033 344.959 188.994ZM245.205 171 257.322 171 292.505 222.057 293.161 222.057 293.161 171 306.628 171 306.628 245.903 294.585 245.903 259.366 194.883 258.746 194.883 258.746 245.903 245.205 245.903ZM149 171 213.1 171 213.1 185.918 190.104 185.918 190.104 247 172.033 247 172.033 185.918 149 185.918Z" fill-rule="evenodd"/><path d="M207.465 367.144C207.315 367.305 207.013 367.45 206.56 367.578 206.106 367.706 205.585 367.819 204.996 367.917 204.407 368.014 203.834 368.096 203.279 368.164 202.723 368.232 202.268 368.286 201.914 368.326 201.067 368.426 200.287 368.597 199.573 368.838 198.86 369.079 198.285 369.437 197.85 369.911 197.415 370.385 197.191 371.021 197.179 371.82 197.186 372.554 197.377 373.169 197.753 373.663 198.129 374.157 198.647 374.528 199.307 374.777 199.968 375.027 200.727 375.151 201.587 375.152 202.859 375.136 203.932 374.886 204.804 374.401 205.677 373.916 206.338 373.288 206.788 372.516 207.237 371.745 207.463 370.921 207.465 370.046ZM329.855 359.459C328.626 359.474 327.563 359.761 326.666 360.32 325.768 360.878 325.063 361.615 324.55 362.53 324.036 363.445 323.741 364.446 323.664 365.532L335.57 365.532C335.564 364.357 335.328 363.315 334.862 362.405 334.397 361.495 333.738 360.779 332.885 360.257 332.032 359.735 331.022 359.469 329.855 359.459ZM293.61 359.459C292.179 359.479 291.001 359.851 290.076 360.573 289.152 361.296 288.465 362.249 288.018 363.432 287.571 364.614 287.349 365.906 287.351 367.305 287.349 368.704 287.571 369.991 288.018 371.165 288.465 372.339 289.152 373.283 290.076 373.997 291.001 374.711 292.179 375.078 293.61 375.098 295.041 375.078 296.219 374.711 297.144 373.997 298.069 373.283 298.755 372.339 299.202 371.165 299.649 369.991 299.871 368.704 299.869 367.305 299.871 365.906 299.649 364.614 299.202 363.432 298.755 362.249 298.069 361.296 297.144 360.573 296.219 359.851 295.041 359.479 293.61 359.459ZM224.881 359.459C223.521 359.474 222.389 359.82 221.487 360.498 220.584 361.176 219.908 362.095 219.459 363.257 219.01 364.418 218.785 365.732 218.785 367.198 218.786 368.683 219.015 370.018 219.471 371.205 219.927 372.391 220.607 373.332 221.511 374.029 222.415 374.726 223.538 375.082 224.881 375.098 226.172 375.087 227.262 374.751 228.151 374.089 229.04 373.427 229.715 372.505 230.175 371.324 230.635 370.143 230.866 368.767 230.868 367.198 230.867 365.647 230.64 364.294 230.187 363.137 229.734 361.981 229.063 361.081 228.175 360.438 227.287 359.795 226.189 359.469 224.881 359.459ZM181.2 359.459C179.971 359.474 178.908 359.761 178.011 360.32 177.113 360.878 176.408 361.615 175.895 362.53 175.381 363.445 175.086 364.446 175.009 365.532L186.915 365.532C186.909 364.357 186.673 363.315 186.208 362.405 185.742 361.495 185.083 360.779 184.23 360.257 183.377 359.735 182.367 359.469 181.2 359.459ZM355.475 356.879 373 365.693 373 367.843 355.475 376.656 355.475 373.217 368.809 366.875 368.809 366.66 355.475 360.319ZM329.855 356.61C330.956 356.604 332.036 356.781 333.095 357.142 334.154 357.503 335.115 358.085 335.978 358.888 336.841 359.691 337.53 360.753 338.045 362.075 338.559 363.396 338.823 365.014 338.835 366.929L338.835 368.273 323.664 368.273C323.722 369.748 324.028 370.993 324.583 372.007 325.138 373.02 325.893 373.788 326.85 374.311 327.807 374.833 328.917 375.096 330.182 375.098 331.45 375.098 332.533 374.829 333.432 374.292 334.331 373.754 334.989 372.948 335.407 371.873L338.509 372.733C337.999 374.314 337.019 375.573 335.57 376.509 334.121 377.445 332.325 377.924 330.182 377.946 328.159 377.933 326.423 377.488 324.971 376.611 323.519 375.734 322.403 374.504 321.623 372.922 320.842 371.341 320.448 369.486 320.439 367.359 320.451 365.23 320.845 363.361 321.623 361.754 322.4 360.146 323.492 358.891 324.898 357.988 326.305 357.085 327.957 356.626 329.855 356.61ZM293.61 356.61C295.509 356.623 297.166 357.069 298.581 357.95 299.996 358.83 301.097 360.069 301.883 361.666 302.669 363.263 303.068 365.143 303.08 367.305 303.068 369.45 302.669 371.317 301.883 372.906 301.097 374.496 299.996 375.73 298.581 376.609 297.166 377.487 295.509 377.933 293.61 377.946 291.711 377.933 290.054 377.487 288.639 376.609 287.224 375.73 286.123 374.496 285.337 372.906 284.551 371.317 284.152 369.45 284.14 367.305 284.152 365.143 284.551 363.263 285.337 361.666 286.123 360.069 287.224 358.83 288.639 357.95 290.054 357.069 291.711 356.623 293.61 356.61ZM260.681 356.61C262.053 356.618 263.201 356.925 264.127 357.531 265.053 358.136 265.773 358.994 266.287 360.104L266.505 360.104C267.049 359.023 267.852 358.174 268.915 357.556 269.978 356.938 271.261 356.622 272.764 356.61 274.016 356.608 275.119 356.862 276.072 357.372 277.025 357.882 277.771 358.661 278.309 359.71 278.848 360.758 279.122 362.09 279.132 363.704L279.132 377.516 275.921 377.516 275.921 363.704C275.911 362.692 275.713 361.873 275.328 361.248 274.943 360.623 274.431 360.168 273.792 359.882 273.153 359.596 272.448 359.455 271.676 359.459 270.693 359.467 269.858 359.669 269.17 360.066 268.482 360.463 267.957 361.007 267.596 361.7 267.234 362.393 267.052 363.186 267.049 364.081L267.049 377.516 263.784 377.516 263.784 363.382C263.764 362.19 263.379 361.242 262.629 360.539 261.879 359.835 260.885 359.475 259.647 359.459 258.801 359.466 258.021 359.688 257.307 360.125 256.593 360.561 256.019 361.165 255.584 361.937 255.148 362.709 254.924 363.603 254.912 364.618L254.912 377.516 251.701 377.516 251.701 356.879 254.803 356.879 254.803 360.104 255.076 360.104C255.52 358.994 256.223 358.136 257.185 357.531 258.146 356.925 259.312 356.618 260.681 356.61ZM202.948 356.61C203.634 356.597 204.412 356.671 205.281 356.83 206.15 356.99 206.993 357.315 207.812 357.806 208.631 358.297 209.308 359.032 209.844 360.011 210.379 360.991 210.657 362.293 210.676 363.919L210.676 377.516 207.465 377.516 207.465 374.722 207.302 374.722C207.087 375.185 206.724 375.668 206.213 376.169 205.702 376.67 205.025 377.097 204.182 377.449 203.338 377.801 202.31 377.984 201.097 378 199.759 377.996 198.554 377.747 197.483 377.252 196.412 376.756 195.562 376.037 194.933 375.094 194.304 374.151 193.982 373.006 193.968 371.658 193.979 370.485 194.22 369.527 194.689 368.784 195.159 368.041 195.785 367.458 196.568 367.035 197.351 366.612 198.22 366.293 199.174 366.079 200.128 365.865 201.096 365.701 202.077 365.585 203.343 365.438 204.373 365.318 205.167 365.223 205.961 365.129 206.544 364.976 206.915 364.765 207.286 364.555 207.469 364.201 207.465 363.704L207.465 363.597C207.466 362.264 207.1 361.235 206.368 360.508 205.636 359.782 204.532 359.414 203.057 359.405 202.039 359.416 201.167 359.574 200.442 359.879 199.717 360.184 199.123 360.573 198.659 361.045 198.196 361.518 197.847 362.01 197.614 362.522L194.566 361.447C195.125 360.203 195.858 359.228 196.763 358.521 197.669 357.815 198.66 357.317 199.735 357.028 200.81 356.74 201.881 356.6 202.948 356.61ZM181.2 356.61C182.302 356.604 183.382 356.781 184.44 357.142 185.499 357.503 186.46 358.085 187.323 358.888 188.186 359.691 188.875 360.753 189.39 362.075 189.904 363.396 190.168 365.014 190.181 366.929L190.181 368.273 175.009 368.273C175.067 369.748 175.373 370.993 175.928 372.007 176.483 373.02 177.238 373.788 178.195 374.311 179.152 374.833 180.263 375.096 181.527 375.098 182.795 375.098 183.878 374.829 184.777 374.292 185.676 373.754 186.334 372.948 186.752 371.873L189.854 372.733C189.344 374.314 188.364 375.573 186.915 376.509 185.466 377.445 183.67 377.924 181.527 377.946 179.505 377.933 177.768 377.488 176.316 376.611 174.864 375.734 173.748 374.504 172.968 372.922 172.187 371.341 171.793 369.486 171.785 367.359 171.796 365.23 172.19 363.361 172.968 361.754 173.745 360.146 174.837 358.891 176.243 357.988 177.65 357.085 179.302 356.626 181.2 356.61ZM316.641 356.557C316.897 356.557 317.192 356.563 317.526 356.573 317.86 356.584 318.127 356.596 318.329 356.61L318.329 359.835C318.205 359.802 317.959 359.76 317.589 359.707 317.219 359.655 316.812 359.626 316.369 359.62 315.345 359.628 314.437 359.839 313.646 360.253 312.855 360.667 312.234 361.236 311.781 361.961 311.329 362.685 311.099 363.517 311.09 364.457L311.09 377.516 307.879 377.516 307.879 356.879 310.981 356.879 310.981 359.996 311.199 359.996C311.602 358.959 312.292 358.131 313.267 357.511 314.242 356.89 315.367 356.572 316.641 356.557ZM152.374 352.956 152.374 363.758 158.361 363.758C160.572 363.743 162.164 363.269 163.137 362.337 164.11 361.405 164.586 360.105 164.566 358.438 164.587 356.763 164.109 355.436 163.13 354.457 162.152 353.478 160.544 352.978 158.307 352.956ZM230.814 350 234.025 350 234.025 377.516 230.923 377.516 230.923 374.346 230.542 374.346C230.37 374.638 230.142 374.984 229.857 375.384 229.572 375.785 229.199 376.18 228.739 376.569 228.278 376.959 227.698 377.283 226.998 377.542 226.298 377.802 225.447 377.936 224.446 377.946 222.691 377.936 221.151 377.497 219.824 376.631 218.497 375.764 217.46 374.533 216.713 372.938 215.967 371.343 215.587 369.448 215.574 367.251 215.587 365.073 215.967 363.19 216.715 361.602 217.463 360.015 218.505 358.789 219.84 357.924 221.175 357.059 222.728 356.621 224.5 356.61 225.515 356.62 226.37 356.755 227.067 357.013 227.763 357.272 228.336 357.595 228.786 357.981 229.236 358.367 229.598 358.757 229.873 359.15 230.148 359.543 230.371 359.879 230.542 360.157L230.814 360.157ZM149 350 158.416 350C160.589 350.014 162.375 350.383 163.774 351.107 165.173 351.83 166.209 352.824 166.882 354.088 167.555 355.353 167.89 356.802 167.886 358.438 167.891 360.283 167.466 361.876 166.612 363.216 165.758 364.556 164.445 365.534 162.675 366.15L168.974 377.516 165.056 377.516 159.178 366.754C158.949 366.766 158.713 366.77 158.47 366.768L152.374 366.768 152.374 377.516 149 377.516Z" fill="#0E78EC" fill-rule="evenodd"/><path d="M688.657 307.707C688.466 307.915 688.081 308.101 687.501 308.266 686.922 308.431 686.257 308.576 685.505 308.701 684.754 308.826 684.023 308.932 683.314 309.02 682.605 309.107 682.024 309.176 681.572 309.228 680.492 309.356 679.496 309.576 678.585 309.886 677.674 310.196 676.941 310.656 676.385 311.266 675.83 311.875 675.544 312.694 675.529 313.721 675.538 314.666 675.782 315.456 676.262 316.091 676.742 316.726 677.403 317.204 678.246 317.525 679.088 317.845 680.058 318.005 681.155 318.006 682.779 317.986 684.147 317.665 685.261 317.041 686.375 316.417 687.219 315.609 687.793 314.617 688.367 313.624 688.655 312.565 688.657 311.44ZM576.181 307.707C575.99 307.915 575.604 308.101 575.026 308.266 574.446 308.431 573.781 308.576 573.03 308.701 572.278 308.826 571.547 308.932 570.838 309.02 570.129 309.107 569.548 309.176 569.096 309.228 568.016 309.356 567.02 309.576 566.109 309.886 565.198 310.196 564.465 310.656 563.909 311.266 563.354 311.875 563.068 312.694 563.053 313.721 563.062 314.666 563.306 315.456 563.786 316.091 564.266 316.726 564.927 317.204 565.769 317.525 566.612 317.845 567.582 318.005 568.679 318.006 570.303 317.986 571.671 317.665 572.785 317.041 573.899 316.417 574.743 315.609 575.317 314.617 575.891 313.624 576.179 312.565 576.181 311.44ZM220.17 307.707C219.978 307.915 219.593 308.101 219.014 308.266 218.435 308.431 217.77 308.576 217.018 308.701 216.266 308.826 215.536 308.932 214.827 309.02 214.117 309.107 213.537 309.176 213.085 309.228 212.004 309.356 211.008 309.576 210.098 309.886 209.187 310.196 208.454 310.656 207.898 311.266 207.342 311.875 207.057 312.694 207.041 313.721 207.05 314.666 207.295 315.456 207.775 316.091 208.254 316.726 208.916 317.204 209.758 317.525 210.601 317.845 211.571 318.005 212.668 318.006 214.291 317.986 215.66 317.665 216.774 317.041 217.888 316.417 218.732 315.609 219.306 314.617 219.879 313.624 220.167 312.565 220.17 311.44ZM1147.95 297.824C1146.28 297.836 1144.88 298.256 1143.74 299.083 1142.61 299.91 1141.75 301.067 1141.18 302.554 1140.6 304.042 1140.31 305.782 1140.31 307.777 1140.31 309.795 1140.6 311.564 1141.19 313.083 1141.78 314.603 1142.64 315.788 1143.77 316.639 1144.91 317.49 1146.3 317.923 1147.95 317.937 1149.66 317.916 1151.1 317.458 1152.25 316.562 1153.4 315.666 1154.27 314.455 1154.85 312.93 1155.44 311.404 1155.73 309.686 1155.73 307.777 1155.73 305.891 1155.44 304.202 1154.87 302.708 1154.3 301.214 1153.43 300.031 1152.28 299.16 1151.13 298.288 1149.68 297.843 1147.95 297.824ZM1017.03 297.824C1015.21 297.85 1013.7 298.327 1012.52 299.257 1011.34 300.187 1010.47 301.412 1009.9 302.933 1009.33 304.454 1009.04 306.115 1009.04 307.915 1009.04 309.714 1009.33 311.368 1009.9 312.878 1010.47 314.388 1011.34 315.603 1012.52 316.521 1013.7 317.44 1015.21 317.912 1017.03 317.937 1018.86 317.912 1020.36 317.44 1021.54 316.521 1022.72 315.603 1023.6 314.388 1024.17 312.878 1024.74 311.368 1025.02 309.714 1025.02 307.915 1025.02 306.115 1024.74 304.454 1024.17 302.933 1023.6 301.412 1022.72 300.187 1021.54 299.257 1020.36 298.327 1018.86 297.85 1017.03 297.824ZM867.322 297.824C865.753 297.844 864.396 298.213 863.251 298.931 862.106 299.649 861.205 300.596 860.55 301.773 859.895 302.951 859.518 304.237 859.42 305.634L874.615 305.634C874.607 304.123 874.307 302.783 873.712 301.612 873.118 300.442 872.277 299.521 871.188 298.85 870.1 298.179 868.811 297.837 867.322 297.824ZM813.529 297.824C811.96 297.844 810.603 298.213 809.458 298.931 808.313 299.649 807.412 300.596 806.757 301.773 806.102 302.951 805.725 304.237 805.627 305.634L820.822 305.634C820.815 304.123 820.514 302.783 819.919 301.612 819.325 300.442 818.484 299.521 817.396 298.85 816.307 298.179 815.018 297.837 813.529 297.824ZM728.438 297.824C726.87 297.844 725.513 298.213 724.367 298.931 723.222 299.649 722.322 300.596 721.667 301.773 721.011 302.951 720.635 304.237 720.537 305.634L735.732 305.634C735.724 304.123 735.423 302.783 734.829 301.612 734.234 300.442 733.393 299.521 732.305 298.85 731.217 298.179 729.928 297.837 728.438 297.824ZM626.582 297.824C624.845 297.843 623.401 298.288 622.249 299.16 621.097 300.031 620.234 301.214 619.661 302.708 619.088 304.202 618.801 305.891 618.802 307.777 618.802 309.686 619.094 311.404 619.676 312.93 620.259 314.455 621.127 315.666 622.28 316.562 623.433 317.458 624.867 317.916 626.582 317.937 628.229 317.923 629.62 317.49 630.755 316.639 631.89 315.788 632.751 314.603 633.338 313.083 633.925 311.564 634.22 309.795 634.223 307.777 634.221 305.782 633.931 304.042 633.353 302.554 632.775 301.067 631.919 299.91 630.786 299.083 629.652 298.256 628.25 297.836 626.582 297.824ZM463.386 297.824C461.817 297.844 460.46 298.213 459.315 298.931 458.17 299.649 457.27 300.596 456.614 301.773 455.959 302.951 455.582 304.237 455.484 305.634L470.679 305.634C470.672 304.123 470.371 302.783 469.776 301.612 469.182 300.442 468.341 299.521 467.253 298.85 466.164 298.179 464.875 297.837 463.386 297.824ZM391.988 297.824C390.419 297.844 389.062 298.213 387.917 298.931 386.772 299.649 385.872 300.596 385.216 301.773 384.561 302.951 384.184 304.237 384.086 305.634L399.282 305.634C399.274 304.123 398.973 302.783 398.378 301.612 397.784 300.442 396.943 299.521 395.855 298.85 394.766 298.179 393.477 297.837 391.988 297.824ZM345.111 297.824C343.285 297.85 341.781 298.327 340.601 299.257 339.42 300.187 338.545 301.412 337.974 302.933 337.403 304.454 337.119 306.115 337.122 307.915 337.119 309.714 337.403 311.368 337.974 312.878 338.545 314.388 339.42 315.603 340.601 316.521 341.781 317.44 343.285 317.912 345.111 317.937 346.937 317.912 348.44 317.44 349.621 316.521 350.801 315.603 351.677 314.388 352.248 312.878 352.818 311.368 353.102 309.714 353.099 307.915 353.102 306.115 352.818 304.454 352.248 302.933 351.677 301.412 350.801 300.187 349.621 299.257 348.44 298.327 346.937 297.85 345.111 297.824ZM186.597 297.824C185.028 297.844 183.671 298.213 182.526 298.931 181.381 299.649 180.48 300.596 179.825 301.773 179.17 302.951 178.793 304.237 178.695 305.634L193.89 305.634C193.883 304.123 193.582 302.783 192.987 301.612 192.393 300.442 191.552 299.521 190.464 298.85 189.375 298.179 188.086 297.837 186.597 297.824ZM828.063 294.506 832.509 294.506 839.872 315.656 840.15 315.656 847.513 294.506 851.959 294.506 842.095 321.047 837.927 321.047ZM478.898 294.506 483.205 294.506 488.971 314.827 489.249 314.827 494.945 294.506 499.321 294.506 504.947 314.757 505.225 314.757 510.991 294.506 515.298 294.506 507.17 321.047 503.141 321.047 497.306 300.657 496.89 300.657 491.055 321.047 487.026 321.047ZM1175.07 294.16C1177.69 294.187 1179.76 294.764 1181.29 295.893 1182.81 297.021 1183.89 298.54 1184.51 300.45L1180.83 301.487C1180.6 300.863 1180.26 300.263 1179.82 299.687 1179.37 299.111 1178.76 298.637 1177.99 298.264 1177.23 297.891 1176.25 297.698 1175.07 297.685 1173.97 297.692 1172.99 297.863 1172.14 298.2 1171.29 298.537 1170.61 299 1170.12 299.59 1169.63 300.18 1169.38 300.858 1169.37 301.625 1169.36 302.63 1169.73 303.433 1170.48 304.033 1171.22 304.634 1172.38 305.122 1173.96 305.496L1177.91 306.463C1180.29 307.038 1182.07 307.919 1183.24 309.105 1184.42 310.291 1185 311.807 1185 313.652 1184.99 315.191 1184.54 316.556 1183.68 317.747 1182.81 318.938 1181.59 319.875 1180.04 320.557 1178.48 321.239 1176.66 321.587 1174.58 321.6 1171.83 321.594 1169.58 321.006 1167.82 319.835 1166.07 318.665 1164.94 316.949 1164.44 314.688L1168.33 313.721C1168.7 315.146 1169.4 316.217 1170.44 316.932 1171.47 317.648 1172.83 318.006 1174.51 318.006 1175.79 317.997 1176.9 317.808 1177.83 317.438 1178.76 317.068 1179.48 316.571 1179.99 315.948 1180.5 315.324 1180.76 314.628 1180.76 313.859 1180.77 312.941 1180.44 312.168 1179.79 311.539 1179.14 310.91 1178.15 310.44 1176.8 310.126L1172.36 309.09C1169.92 308.517 1168.13 307.623 1166.98 306.407 1165.83 305.191 1165.26 303.666 1165.27 301.832 1165.29 300.323 1165.72 298.995 1166.56 297.847 1167.4 296.698 1168.56 295.8 1170.03 295.151 1171.49 294.502 1173.17 294.172 1175.07 294.16ZM1148.43 294.16C1150.7 294.174 1152.68 294.738 1154.38 295.85 1156.09 296.962 1157.42 298.539 1158.37 300.581 1159.32 302.622 1159.81 305.044 1159.83 307.846 1159.81 310.67 1159.33 313.108 1158.37 315.159 1157.42 317.211 1156.1 318.793 1154.4 319.908 1152.71 321.022 1150.74 321.586 1148.5 321.6 1147.23 321.587 1146.14 321.414 1145.25 321.081 1144.35 320.747 1143.61 320.33 1143.02 319.829 1142.44 319.328 1141.96 318.82 1141.6 318.305 1141.23 317.79 1140.94 317.345 1140.72 316.969L1140.38 316.969 1140.38 331 1136.28 331 1136.28 294.506 1140.24 294.506 1140.24 298.722 1140.72 298.722C1140.94 298.364 1141.23 297.932 1141.58 297.426 1141.93 296.921 1142.39 296.42 1142.96 295.923 1143.54 295.426 1144.27 295.011 1145.16 294.679 1146.05 294.346 1147.14 294.173 1148.43 294.16ZM1119.66 294.16C1121.55 294.171 1123.24 294.519 1124.74 295.205 1126.24 295.891 1127.47 296.853 1128.42 298.092 1129.37 299.331 1129.97 300.785 1130.22 302.454L1126.12 302.454C1125.91 301.636 1125.53 300.877 1124.99 300.179 1124.44 299.48 1123.73 298.916 1122.85 298.487 1121.97 298.057 1120.93 297.836 1119.73 297.824 1118.12 297.835 1116.72 298.25 1115.53 299.068 1114.33 299.886 1113.41 301.038 1112.75 302.524 1112.09 304.01 1111.75 305.761 1111.74 307.777 1111.75 309.839 1112.08 311.628 1112.73 313.145 1113.38 314.661 1114.3 315.836 1115.5 316.67 1116.69 317.503 1118.1 317.925 1119.73 317.937 1121.35 317.925 1122.71 317.516 1123.84 316.71 1124.96 315.904 1125.72 314.769 1126.12 313.306L1130.22 313.306C1129.98 314.888 1129.41 316.301 1128.5 317.545 1127.6 318.789 1126.4 319.772 1124.92 320.494 1123.43 321.216 1121.7 321.585 1119.73 321.6 1117.22 321.578 1115.06 320.984 1113.26 319.818 1111.46 318.652 1110.08 317.045 1109.11 314.995 1108.14 312.946 1107.65 310.586 1107.64 307.915 1107.66 305.199 1108.16 302.812 1109.15 300.755 1110.14 298.697 1111.54 297.088 1113.33 295.929 1115.13 294.77 1117.24 294.18 1119.66 294.16ZM1047 294.16C1048.75 294.17 1050.22 294.565 1051.4 295.344 1052.58 296.123 1053.5 297.226 1054.15 298.653L1054.43 298.653C1055.13 297.264 1056.15 296.172 1057.51 295.376 1058.86 294.581 1060.5 294.176 1062.42 294.16 1064.02 294.157 1065.43 294.484 1066.64 295.139 1067.86 295.795 1068.81 296.797 1069.5 298.146 1070.19 299.495 1070.54 301.207 1070.55 303.284L1070.55 321.047 1066.45 321.047 1066.45 303.284C1066.44 301.982 1066.18 300.929 1065.69 300.125 1065.2 299.321 1064.55 298.735 1063.73 298.368 1062.92 298 1062.02 297.818 1061.03 297.824 1059.78 297.834 1058.71 298.094 1057.83 298.604 1056.96 299.115 1056.29 299.815 1055.82 300.706 1055.36 301.597 1055.13 302.617 1055.13 303.768L1055.13 321.047 1050.96 321.047 1050.96 302.869C1050.93 301.336 1050.44 300.117 1049.49 299.212 1048.53 298.308 1047.26 297.845 1045.68 297.824 1044.6 297.833 1043.6 298.119 1042.69 298.68 1041.78 299.241 1041.05 300.018 1040.49 301.011 1039.94 302.004 1039.65 303.153 1039.64 304.459L1039.64 321.047 1035.54 321.047 1035.54 294.506 1039.5 294.506 1039.5 298.653 1039.85 298.653C1040.41 297.226 1041.31 296.123 1042.54 295.344 1043.76 294.565 1045.25 294.17 1047 294.16ZM1017.03 294.16C1019.46 294.176 1021.57 294.751 1023.38 295.883 1025.18 297.016 1026.59 298.609 1027.59 300.662 1028.6 302.716 1029.1 305.134 1029.12 307.915 1029.1 310.673 1028.6 313.074 1027.59 315.118 1026.59 317.162 1025.18 318.75 1023.38 319.88 1021.57 321.01 1019.46 321.583 1017.03 321.6 1014.61 321.583 1012.49 321.01 1010.69 319.88 1008.88 318.75 1007.48 317.162 1006.47 315.118 1005.47 313.074 1004.96 310.673 1004.95 307.915 1004.96 305.134 1005.47 302.716 1006.47 300.662 1007.48 298.609 1008.88 297.016 1010.69 295.883 1012.49 294.751 1014.61 294.176 1017.03 294.16ZM940.334 294.16C942.957 294.187 945.031 294.764 946.555 295.893 948.08 297.021 949.155 298.54 949.781 300.45L946.099 301.487C945.87 300.863 945.531 300.263 945.083 299.687 944.635 299.111 944.027 298.637 943.26 298.264 942.494 297.891 941.518 297.698 940.334 297.685 939.236 297.692 938.26 297.863 937.406 298.2 936.552 298.537 935.88 299 935.389 299.59 934.898 300.18 934.648 300.858 934.638 301.625 934.631 302.63 935 303.433 935.745 304.033 936.49 304.634 937.649 305.122 939.222 305.496L943.182 306.463C945.559 307.038 947.335 307.919 948.509 309.105 949.683 310.291 950.269 311.807 950.267 313.652 950.253 315.191 949.812 316.556 948.943 317.747 948.075 318.938 946.862 319.875 945.304 320.557 943.747 321.239 941.928 321.587 939.848 321.6 937.099 321.594 934.847 321.006 933.09 319.835 931.334 318.665 930.206 316.949 929.706 314.688L933.596 313.721C933.963 315.146 934.666 316.217 935.704 316.932 936.742 317.648 938.1 318.006 939.778 318.006 941.058 317.997 942.164 317.808 943.097 317.438 944.03 317.068 944.75 316.571 945.258 315.948 945.766 315.324 946.023 314.628 946.03 313.859 946.033 312.941 945.71 312.168 945.06 311.539 944.409 310.91 943.413 310.44 942.07 310.126L937.625 309.09C935.187 308.517 933.394 307.623 932.246 306.407 931.097 305.191 930.529 303.666 930.539 301.832 930.556 300.323 930.986 298.995 931.828 297.847 932.671 296.698 933.826 295.8 935.294 295.151 936.762 294.502 938.441 294.172 940.334 294.16ZM897.005 294.16C898.817 294.159 900.397 294.523 901.747 295.253 903.096 295.984 904.145 297.091 904.894 298.574 905.643 300.057 906.024 301.926 906.035 304.182L906.035 321.047 901.937 321.047 901.937 304.459C901.92 302.36 901.376 300.734 900.307 299.58 899.237 298.425 897.743 297.84 895.824 297.824 894.505 297.827 893.335 298.111 892.315 298.676 891.295 299.24 890.493 300.062 889.909 301.141 889.326 302.22 889.028 303.533 889.017 305.081L889.017 321.047 884.918 321.047 884.918 294.506 888.878 294.506 888.878 298.653 889.225 298.653C889.844 297.286 890.794 296.201 892.073 295.396 893.352 294.591 894.996 294.179 897.005 294.16ZM867.322 294.16C868.727 294.152 870.106 294.38 871.457 294.844 872.808 295.308 874.035 296.056 875.136 297.089 876.238 298.122 877.117 299.488 877.774 301.188 878.43 302.887 878.767 304.968 878.783 307.431L878.783 309.159 859.42 309.159C859.494 311.057 859.885 312.658 860.593 313.961 861.301 315.265 862.265 316.253 863.486 316.924 864.707 317.596 866.125 317.934 867.738 317.937 869.357 317.937 870.739 317.591 871.887 316.9 873.034 316.209 873.874 315.172 874.407 313.79L878.366 314.896C877.715 316.929 876.465 318.547 874.615 319.751 872.766 320.955 870.473 321.571 867.738 321.6 865.158 321.583 862.941 321.01 861.088 319.882 859.235 318.754 857.811 317.173 856.815 315.139 855.818 313.105 855.315 310.72 855.304 307.984 855.319 305.246 855.822 302.843 856.815 300.775 857.807 298.708 859.2 297.093 860.995 295.932 862.79 294.77 864.899 294.18 867.322 294.16ZM813.529 294.16C814.934 294.152 816.313 294.38 817.664 294.844 819.015 295.308 820.242 296.056 821.343 297.089 822.445 298.122 823.324 299.488 823.981 301.188 824.637 302.887 824.974 304.968 824.99 307.431L824.99 309.159 805.627 309.159C805.701 311.057 806.092 312.658 806.8 313.961 807.508 315.265 808.472 316.253 809.693 316.924 810.915 317.596 812.332 317.934 813.945 317.937 815.564 317.937 816.946 317.591 818.094 316.9 819.241 316.209 820.081 315.172 820.614 313.79L824.573 314.896C823.922 316.929 822.672 318.547 820.822 319.751 818.973 320.955 816.681 321.571 813.945 321.6 811.365 321.583 809.148 321.01 807.295 319.882 805.442 318.754 804.018 317.173 803.022 315.139 802.026 313.105 801.522 310.72 801.511 307.984 801.526 305.246 802.029 302.843 803.022 300.775 804.014 298.708 805.407 297.093 807.202 295.932 808.997 294.77 811.106 294.18 813.529 294.16ZM755.482 294.16C758.105 294.187 760.179 294.764 761.703 295.893 763.228 297.021 764.303 298.54 764.929 300.45L761.247 301.487C761.018 300.863 760.679 300.263 760.231 299.687 759.783 299.111 759.175 298.637 758.408 298.264 757.641 297.891 756.666 297.698 755.482 297.685 754.384 297.692 753.408 297.863 752.554 298.2 751.7 298.537 751.028 299 750.537 299.59 750.046 300.18 749.796 300.858 749.786 301.625 749.779 302.63 750.148 303.433 750.893 304.033 751.637 304.634 752.797 305.122 754.37 305.496L758.33 306.463C760.707 307.038 762.482 307.919 763.657 309.105 764.831 310.291 765.417 311.807 765.415 313.652 765.401 315.191 764.96 316.556 764.091 317.747 763.223 318.938 762.01 319.875 760.452 320.557 758.895 321.239 757.076 321.587 754.996 321.6 752.247 321.594 749.994 321.006 748.238 319.835 746.482 318.665 745.353 316.949 744.854 314.688L748.744 313.721C749.111 315.146 749.814 316.217 750.852 316.932 751.89 317.648 753.248 318.006 754.926 318.006 756.206 317.997 757.312 317.808 758.245 317.438 759.177 317.068 759.898 316.571 760.406 315.948 760.914 315.324 761.171 314.628 761.178 313.859 761.181 312.941 760.858 312.168 760.208 311.539 759.557 310.91 758.561 310.44 757.218 310.126L752.773 309.09C750.335 308.517 748.542 307.623 747.394 306.407 746.245 305.191 745.676 303.666 745.687 301.832 745.704 300.323 746.134 298.995 746.976 297.847 747.819 296.698 748.974 295.8 750.442 295.151 751.91 294.502 753.59 294.172 755.482 294.16ZM728.438 294.16C729.844 294.152 731.222 294.38 732.573 294.844 733.925 295.308 735.151 296.056 736.253 297.089 737.354 298.122 738.234 299.488 738.89 301.188 739.547 302.887 739.883 304.968 739.9 307.431L739.9 309.159 720.537 309.159C720.61 311.057 721.001 312.658 721.709 313.961 722.417 315.265 723.382 316.253 724.603 316.924 725.824 317.596 727.241 317.934 728.855 317.937 730.473 317.937 731.856 317.591 733.003 316.9 734.15 316.209 734.99 315.172 735.523 313.79L739.483 314.896C738.832 316.929 737.581 318.547 735.732 319.751 733.882 320.955 731.59 321.571 728.855 321.6 726.274 321.583 724.057 321.01 722.204 319.882 720.352 318.754 718.927 317.173 717.931 315.139 716.935 313.105 716.432 310.72 716.421 307.984 716.435 305.246 716.939 302.843 717.931 300.775 718.923 298.708 720.317 297.093 722.112 295.932 723.907 294.77 726.015 294.18 728.438 294.16ZM682.892 294.16C683.768 294.143 684.76 294.238 685.869 294.443 686.978 294.649 688.055 295.067 689.1 295.698 690.145 296.329 691.01 297.275 691.693 298.534 692.377 299.794 692.731 301.469 692.756 303.56L692.756 321.047 688.657 321.047 688.657 317.453 688.449 317.453C688.175 318.049 687.712 318.669 687.06 319.314 686.408 319.959 685.543 320.507 684.466 320.96 683.39 321.413 682.078 321.649 680.53 321.669 678.821 321.664 677.284 321.344 675.917 320.707 674.551 320.07 673.466 319.145 672.663 317.932 671.86 316.719 671.449 315.246 671.43 313.513 671.446 312.005 671.753 310.772 672.352 309.817 672.951 308.861 673.75 308.111 674.749 307.567 675.749 307.023 676.858 306.613 678.075 306.338 679.293 306.063 680.528 305.851 681.781 305.703 683.396 305.514 684.711 305.358 685.724 305.237 686.738 305.116 687.482 304.919 687.955 304.648 688.428 304.377 688.663 303.922 688.657 303.284L688.657 303.146C688.659 301.432 688.192 300.108 687.257 299.173 686.323 298.239 684.914 297.766 683.031 297.754 681.732 297.768 680.619 297.971 679.694 298.364 678.769 298.756 678.01 299.256 677.418 299.864 676.827 300.471 676.382 301.104 676.084 301.763L672.194 300.381C672.908 298.781 673.843 297.527 674.999 296.618 676.155 295.709 677.419 295.069 678.791 294.698 680.163 294.327 681.53 294.147 682.892 294.16ZM599.677 294.16C601.489 294.159 603.069 294.523 604.418 295.253 605.768 295.984 606.817 297.091 607.566 298.574 608.315 300.057 608.696 301.926 608.707 304.182L608.707 321.047 604.609 321.047 604.609 304.459C604.592 302.36 604.048 300.734 602.979 299.58 601.909 298.425 600.415 297.84 598.496 297.824 597.176 297.827 596.007 298.111 594.987 298.676 593.967 299.24 593.165 300.062 592.581 301.141 591.997 302.22 591.7 303.533 591.688 305.081L591.688 321.047 587.59 321.047 587.59 294.506 591.55 294.506 591.55 298.653 591.897 298.653C592.516 297.286 593.466 296.201 594.745 295.396 596.024 294.591 597.668 294.179 599.677 294.16ZM570.416 294.16C571.292 294.143 572.284 294.238 573.393 294.443 574.502 294.649 575.579 295.067 576.624 295.698 577.669 296.329 578.534 297.275 579.217 298.534 579.901 299.794 580.255 301.469 580.28 303.56L580.28 321.047 576.181 321.047 576.181 317.453 575.973 317.453C575.699 318.049 575.236 318.669 574.584 319.314 573.932 319.959 573.067 320.507 571.99 320.96 570.914 321.413 569.602 321.649 568.054 321.669 566.345 321.664 564.808 321.344 563.441 320.707 562.075 320.07 560.99 319.145 560.187 317.932 559.383 316.719 558.973 315.246 558.954 313.513 558.969 312.005 559.277 310.772 559.876 309.817 560.474 308.861 561.274 308.111 562.273 307.567 563.273 307.023 564.382 306.613 565.599 306.338 566.817 306.063 568.052 305.851 569.304 305.703 570.92 305.514 572.235 305.358 573.248 305.237 574.262 305.116 575.006 304.919 575.479 304.648 575.952 304.377 576.187 303.922 576.181 303.284L576.181 303.146C576.182 301.432 575.716 300.108 574.781 299.173 573.847 298.239 572.438 297.766 570.555 297.754 569.256 297.768 568.143 297.971 567.218 298.364 566.292 298.756 565.534 299.256 564.942 299.864 564.351 300.471 563.906 301.104 563.608 301.763L559.718 300.381C560.432 298.781 561.367 297.527 562.523 296.618 563.679 295.709 564.943 295.069 566.315 294.698 567.687 294.327 569.054 294.147 570.416 294.16ZM530.53 294.16C533.153 294.187 535.226 294.764 536.751 295.893 538.276 297.021 539.351 298.54 539.977 300.45L536.295 301.487C536.066 300.863 535.727 300.263 535.279 299.687 534.831 299.111 534.223 298.637 533.456 298.264 532.689 297.891 531.714 297.698 530.53 297.685 529.432 297.692 528.456 297.863 527.602 298.2 526.748 298.537 526.076 299 525.585 299.59 525.094 300.18 524.844 300.858 524.833 301.625 524.827 302.63 525.196 303.433 525.941 304.033 526.685 304.634 527.844 305.122 529.418 305.496L533.378 306.463C535.755 307.038 537.53 307.919 538.705 309.105 539.879 310.291 540.465 311.807 540.463 313.652 540.449 315.191 540.008 316.556 539.139 317.747 538.271 318.938 537.058 319.875 535.5 320.557 533.943 321.239 532.124 321.587 530.043 321.6 527.295 321.594 525.042 321.006 523.286 319.835 521.529 318.665 520.401 316.949 519.902 314.688L523.792 313.721C524.159 315.146 524.861 316.217 525.899 316.932 526.937 317.648 528.296 318.006 529.974 318.006 531.254 317.997 532.36 317.808 533.293 317.438 534.225 317.068 534.946 316.571 535.454 315.948 535.962 315.324 536.219 314.628 536.226 313.859 536.229 312.941 535.906 312.168 535.255 311.539 534.605 310.91 533.609 310.44 532.266 310.126L527.821 309.09C525.383 308.517 523.59 307.623 522.441 306.407 521.293 305.191 520.724 303.666 520.735 301.832 520.752 300.323 521.182 298.995 522.024 297.847 522.867 296.698 524.022 295.8 525.49 295.151 526.957 294.502 528.637 294.172 530.53 294.16ZM463.386 294.16C464.791 294.152 466.17 294.38 467.521 294.844 468.872 295.308 470.099 296.056 471.2 297.089 472.302 298.122 473.181 299.488 473.838 301.188 474.495 302.887 474.831 304.968 474.847 307.431L474.847 309.159 455.484 309.159C455.558 311.057 455.949 312.658 456.657 313.961 457.365 315.265 458.329 316.253 459.55 316.924 460.772 317.596 462.189 317.934 463.802 317.937 465.421 317.937 466.804 317.591 467.951 316.9 469.098 316.209 469.938 315.172 470.471 313.79L474.43 314.896C473.779 316.929 472.529 318.547 470.679 319.751 468.83 320.955 466.538 321.571 463.802 321.6 461.222 321.583 459.005 321.01 457.152 319.882 455.299 318.754 453.875 317.173 452.879 315.139 451.883 313.105 451.379 310.72 451.368 307.984 451.383 305.246 451.886 302.843 452.879 300.775 453.871 298.708 455.264 297.093 457.059 295.932 458.854 294.77 460.963 294.18 463.386 294.16ZM436.342 294.16C438.154 294.159 439.734 294.523 441.084 295.253 442.433 295.984 443.482 297.091 444.231 298.574 444.98 300.057 445.361 301.926 445.372 304.182L445.372 321.047 441.274 321.047 441.274 304.459C441.257 302.36 440.713 300.734 439.644 299.58 438.574 298.425 437.08 297.84 435.161 297.824 433.842 297.827 432.672 298.111 431.652 298.676 430.632 299.24 429.83 300.062 429.246 301.141 428.663 302.22 428.365 303.533 428.354 305.081L428.354 321.047 424.255 321.047 424.255 294.506 428.215 294.506 428.215 298.653 428.562 298.653C429.181 297.286 430.131 296.201 431.41 295.396 432.689 294.591 434.333 294.179 436.342 294.16ZM391.988 294.16C393.393 294.152 394.772 294.38 396.123 294.844 397.474 295.308 398.701 296.056 399.802 297.089 400.904 298.122 401.783 299.488 402.44 301.188 403.097 302.887 403.433 304.968 403.449 307.431L403.449 309.159 384.086 309.159C384.16 311.057 384.551 312.658 385.259 313.961 385.967 315.265 386.931 316.253 388.153 316.924 389.374 317.596 390.791 317.934 392.405 317.937 394.023 317.937 395.406 317.591 396.553 316.9 397.7 316.209 398.54 315.172 399.073 313.79L403.033 314.896C402.381 316.929 401.131 318.547 399.282 319.751 397.432 320.955 395.14 321.571 392.405 321.6 389.824 321.583 387.607 321.01 385.754 319.882 383.901 318.754 382.477 317.173 381.481 315.139 380.485 313.105 379.981 310.72 379.971 307.984 379.985 305.246 380.489 302.843 381.481 300.775 382.473 298.708 383.867 297.093 385.661 295.932 387.456 294.77 389.565 294.18 391.988 294.16ZM345.111 294.16C347.534 294.176 349.649 294.751 351.455 295.883 353.261 297.016 354.666 298.609 355.669 300.662 356.673 302.716 357.182 305.134 357.197 307.915 357.182 310.673 356.673 313.074 355.669 315.118 354.666 317.162 353.261 318.75 351.455 319.88 349.649 321.01 347.534 321.583 345.111 321.6 342.687 321.583 340.572 321.01 338.766 319.88 336.96 318.75 335.556 317.162 334.552 315.118 333.549 313.074 333.039 310.673 333.024 307.915 333.039 305.134 333.549 302.716 334.552 300.662 335.556 298.609 336.96 297.016 338.766 295.883 340.572 294.751 342.687 294.176 345.111 294.16ZM303.68 294.16C305.43 294.17 306.896 294.565 308.078 295.344 309.259 296.123 310.178 297.226 310.834 298.653L311.112 298.653C311.807 297.264 312.832 296.172 314.188 295.376 315.545 294.581 317.182 294.176 319.101 294.16 320.699 294.157 322.106 294.484 323.323 295.139 324.539 295.795 325.491 296.797 326.178 298.146 326.866 299.495 327.216 301.207 327.228 303.284L327.228 321.047 323.13 321.047 323.13 303.284C323.117 301.982 322.865 300.929 322.373 300.125 321.882 299.321 321.228 298.735 320.413 298.368 319.597 298 318.697 297.818 317.711 297.824 316.458 297.834 315.392 298.094 314.513 298.604 313.635 299.115 312.966 299.815 312.504 300.706 312.043 301.597 311.81 302.617 311.807 303.768L311.807 321.047 307.639 321.047 307.639 302.869C307.613 301.336 307.122 300.117 306.165 299.212 305.208 298.308 303.94 297.845 302.36 297.824 301.279 297.833 300.284 298.119 299.373 298.68 298.462 299.241 297.729 300.018 297.173 301.011 296.617 302.004 296.332 303.153 296.316 304.459L296.316 321.047 292.218 321.047 292.218 294.506 296.178 294.506 296.178 298.653 296.525 298.653C297.092 297.226 297.989 296.123 299.217 295.344 300.444 294.565 301.931 294.17 303.68 294.16ZM262.248 294.16C264.06 294.159 265.641 294.523 266.99 295.253 268.339 295.984 269.389 297.091 270.138 298.574 270.887 300.057 271.267 301.926 271.279 304.182L271.279 321.047 267.18 321.047 267.18 304.459C267.164 302.36 266.62 300.734 265.55 299.58 264.48 298.425 262.986 297.84 261.068 297.824 259.748 297.827 258.578 298.111 257.558 298.676 256.539 299.24 255.737 300.062 255.153 301.141 254.569 302.22 254.272 303.533 254.26 305.081L254.26 321.047 250.162 321.047 250.162 294.506 254.121 294.506 254.121 298.653 254.469 298.653C255.088 297.286 256.037 296.201 257.317 295.396 258.596 294.591 260.24 294.179 262.248 294.16ZM214.404 294.16C215.28 294.143 216.273 294.238 217.382 294.443 218.491 294.649 219.568 295.067 220.613 295.698 221.658 296.329 222.522 297.275 223.206 298.534 223.889 299.794 224.244 301.469 224.268 303.56L224.268 321.047 220.17 321.047 220.17 317.453 219.962 317.453C219.688 318.049 219.225 318.669 218.572 319.314 217.92 319.959 217.056 320.507 215.979 320.96 214.902 321.413 213.59 321.649 212.043 321.669 210.334 321.664 208.796 321.344 207.43 320.707 206.063 320.07 204.978 319.145 204.175 317.932 203.372 316.719 202.961 315.246 202.943 313.513 202.958 312.005 203.265 310.772 203.864 309.817 204.463 308.861 205.262 308.111 206.262 307.567 207.262 307.023 208.37 306.613 209.588 306.338 210.805 306.063 212.041 305.851 213.293 305.703 214.909 305.514 216.223 305.358 217.237 305.237 218.251 305.116 218.994 304.919 219.468 304.648 219.941 304.377 220.175 303.922 220.17 303.284L220.17 303.146C220.171 301.432 219.704 300.108 218.77 299.173 217.835 298.239 216.427 297.766 214.543 297.754 213.244 297.768 212.132 297.971 211.207 298.364 210.281 298.756 209.523 299.256 208.931 299.864 208.339 300.471 207.895 301.104 207.597 301.763L203.707 300.381C204.421 298.781 205.355 297.527 206.511 296.618 207.667 295.709 208.931 295.069 210.304 294.698 211.676 294.327 213.043 294.147 214.404 294.16ZM186.597 294.16C188.002 294.152 189.381 294.38 190.732 294.844 192.083 295.308 193.31 296.056 194.411 297.089 195.513 298.122 196.392 299.488 197.049 301.188 197.706 302.887 198.042 304.968 198.058 307.431L198.058 309.159 178.695 309.159C178.769 311.057 179.16 312.658 179.868 313.961 180.576 315.265 181.54 316.253 182.761 316.924 183.983 317.596 185.4 317.934 187.013 317.937 188.632 317.937 190.015 317.591 191.162 316.9 192.309 316.209 193.149 315.172 193.682 313.79L197.641 314.896C196.99 316.929 195.74 318.547 193.89 319.751 192.041 320.955 189.749 321.571 187.013 321.6 184.433 321.583 182.216 321.01 180.363 319.882 178.51 318.754 177.086 317.173 176.09 315.139 175.094 313.105 174.59 310.72 174.579 307.984 174.594 305.246 175.097 302.843 176.09 300.775 177.082 298.708 178.475 297.093 180.27 295.932 182.065 294.77 184.174 294.18 186.597 294.16ZM999.776 294.091C1000.1 294.092 1000.48 294.099 1000.9 294.113 1001.33 294.126 1001.67 294.142 1001.93 294.16L1001.93 298.307C1001.77 298.266 1001.46 298.211 1000.98 298.143 1000.51 298.076 999.994 298.038 999.428 298.031 998.12 298.041 996.962 298.312 995.952 298.845 994.943 299.377 994.15 300.11 993.573 301.041 992.996 301.973 992.701 303.043 992.69 304.251L992.69 321.047 988.592 321.047 988.592 294.506 992.551 294.506 992.551 298.515 992.829 298.515C993.344 297.181 994.224 296.116 995.469 295.318 996.713 294.52 998.149 294.111 999.776 294.091ZM374.8 294.091C375.126 294.092 375.502 294.099 375.928 294.113 376.355 294.126 376.696 294.142 376.953 294.16L376.953 298.307C376.796 298.266 376.481 298.211 376.009 298.143 375.537 298.076 375.018 298.038 374.452 298.031 373.145 298.041 371.986 298.312 370.977 298.845 369.967 299.377 369.174 300.11 368.597 301.041 368.02 301.973 367.725 303.043 367.714 304.251L367.714 321.047 363.616 321.047 363.616 294.506 367.575 294.506 367.575 298.515 367.853 298.515C368.368 297.181 369.248 296.116 370.493 295.318 371.737 294.52 373.173 294.111 374.8 294.091ZM242.762 294.091C243.089 294.092 243.465 294.099 243.891 294.113 244.318 294.126 244.659 294.142 244.916 294.16L244.916 298.307C244.759 298.266 244.444 298.211 243.972 298.143 243.499 298.076 242.981 298.038 242.415 298.031 241.107 298.041 239.949 298.312 238.939 298.845 237.93 299.377 237.137 300.11 236.56 301.041 235.982 301.973 235.688 303.043 235.677 304.251L235.677 321.047 231.579 321.047 231.579 294.506 235.538 294.506 235.538 298.515 235.816 298.515C236.331 297.181 237.211 296.116 238.456 295.318 239.7 294.52 241.136 294.111 242.762 294.091ZM1093.09 288.147 1097.19 288.147 1097.19 294.506 1102.89 294.506 1102.89 297.962 1097.19 297.962 1097.19 313.444C1097.2 314.582 1097.37 315.44 1097.71 316.019 1098.04 316.599 1098.48 316.986 1099.01 317.182 1099.55 317.377 1100.12 317.467 1100.73 317.453 1101.18 317.449 1101.55 317.423 1101.85 317.375 1102.14 317.328 1102.37 317.285 1102.54 317.246L1103.37 320.909C1103.1 321.02 1102.71 321.126 1102.21 321.229 1101.71 321.331 1101.08 321.385 1100.32 321.393 1099.14 321.394 1098 321.146 1096.9 320.648 1095.81 320.15 1094.9 319.395 1094.19 318.382 1093.49 317.37 1093.12 316.092 1093.09 314.55L1093.09 297.962 1089.06 297.962 1089.06 294.506 1093.09 294.506ZM915.088 288.147 919.186 288.147 919.186 294.506 924.882 294.506 924.882 297.962 919.186 297.962 919.186 313.444C919.196 314.582 919.369 315.44 919.703 316.019 920.038 316.599 920.473 316.986 921.008 317.182 921.543 317.377 922.117 317.467 922.729 317.453 923.177 317.449 923.548 317.423 923.84 317.375 924.133 317.328 924.364 317.285 924.535 317.246L925.368 320.909C925.094 321.02 924.706 321.126 924.205 321.229 923.704 321.331 923.073 321.385 922.312 321.393 921.129 321.394 919.991 321.146 918.895 320.648 917.8 320.15 916.898 319.395 916.189 318.382 915.48 317.37 915.113 316.092 915.088 314.55L915.088 297.962 911.059 297.962 911.059 294.506 915.088 294.506ZM773.27 288.147 777.368 288.147 777.368 294.506 783.065 294.506 783.065 297.962 777.368 297.962 777.368 313.444C777.379 314.582 777.551 315.44 777.886 316.019 778.22 316.599 778.655 316.986 779.19 317.182 779.725 317.377 780.299 317.467 780.911 317.453 781.36 317.449 781.73 317.423 782.023 317.375 782.315 317.328 782.546 317.285 782.717 317.246L783.551 320.909C783.276 321.02 782.888 321.126 782.387 321.229 781.887 321.331 781.255 321.385 780.494 321.393 779.312 321.394 778.173 321.146 777.078 320.648 775.983 320.15 775.081 319.395 774.371 318.382 773.662 317.37 773.295 316.092 773.27 314.55L773.27 297.962 769.241 297.962 769.241 294.506 773.27 294.506ZM701.872 288.147 705.971 288.147 705.971 294.506 711.667 294.506 711.667 297.962 705.971 297.962 705.971 313.444C705.981 314.582 706.153 315.44 706.488 316.019 706.822 316.599 707.257 316.986 707.792 317.182 708.327 317.377 708.901 317.467 709.513 317.453 709.962 317.449 710.332 317.423 710.625 317.375 710.917 317.328 711.149 317.285 711.319 317.246L712.153 320.909C711.878 321.02 711.49 321.126 710.989 321.229 710.489 321.331 709.858 321.385 709.096 321.393 707.914 321.394 706.775 321.146 705.68 320.648 704.585 320.15 703.683 319.395 702.973 318.382 702.264 317.37 701.897 316.092 701.872 314.55L701.872 297.962 697.843 297.962 697.843 294.506 701.872 294.506ZM660.944 285.659 665.042 285.659 665.042 321.047 660.944 321.047ZM634.153 285.659 638.252 285.659 638.252 321.047 634.292 321.047 634.292 316.969 633.806 316.969C633.587 317.345 633.296 317.79 632.932 318.305 632.569 318.82 632.093 319.328 631.505 319.829 630.917 320.33 630.176 320.747 629.283 321.081 628.39 321.414 627.304 321.587 626.026 321.6 623.787 321.586 621.82 321.022 620.127 319.908 618.433 318.793 617.11 317.211 616.157 315.159 615.204 313.108 614.72 310.67 614.703 307.846 614.719 305.044 615.205 302.622 616.16 300.581 617.114 298.539 618.444 296.962 620.147 295.85 621.851 294.738 623.833 294.174 626.095 294.16 627.39 294.173 628.482 294.346 629.371 294.679 630.26 295.011 630.992 295.426 631.566 295.923 632.14 296.42 632.602 296.921 632.953 297.426 633.303 297.932 633.588 298.364 633.806 298.722L634.153 298.722ZM149 285.659 153.307 285.659 153.307 317.246 169.839 317.246 169.839 321.047 149 321.047ZM980.295 284C981.299 284.012 982.121 284.092 982.761 284.242 983.401 284.392 983.875 284.542 984.185 284.691L983.004 288.216C982.8 288.138 982.514 288.052 982.145 287.957 981.776 287.862 981.298 287.81 980.712 287.801 979.367 287.804 978.392 288.144 977.786 288.821 977.179 289.498 976.881 290.494 976.891 291.81L976.891 294.506 982.865 294.506 982.865 297.962 976.891 297.962 976.891 321.047 972.793 321.047 972.793 297.962 968.486 297.962 968.486 294.506 972.793 294.506 972.793 290.843C972.815 289.322 973.18 288.055 973.889 287.041 974.598 286.027 975.519 285.267 976.652 284.76 977.785 284.253 979 284 980.295 284Z" fill-rule="evenodd"/></g></svg>