<svg width="909" height="191" xmlns="http://www.w3.org/2000/svg" xmlns:xlink="http://www.w3.org/1999/xlink" overflow="hidden"><defs><clipPath id="clip0"><path d="M179 236 1088 236 1088 427 179 427Z" fill-rule="evenodd" clip-rule="evenodd"/></clipPath></defs><g clip-path="url(#clip0)" transform="translate(-179 -236)"><path d="M180 237 340 237 340 274.099 282.6 274.099 282.6 426 237.493 426 237.493 274.099 180 274.099Z" fill-rule="evenodd"/><path d="M668.913 307.397C662.333 307.473 656.576 308.99 651.642 311.948 646.708 314.907 642.809 318.856 639.946 323.796 637.082 328.736 635.466 334.214 635.098 340.231L700.729 340.231C700.629 333.842 699.253 328.188 696.601 323.27 693.949 318.353 690.257 314.491 685.524 311.686 680.792 308.88 675.255 307.451 668.913 307.397ZM748.256 283.568 781.799 283.568 806.342 381.797 807.615 381.797 832.704 283.568 865.883 283.568 890.972 381.251 892.335 381.251 916.515 283.568 950.149 283.568 910.607 423.271 876.337 423.271 850.157 328.862 848.248 328.862 822.068 423.271 787.708 423.271ZM1027.82 281.749C1044.2 281.885 1057.08 285.387 1066.48 292.254 1075.88 299.121 1081.72 308.534 1084 320.495L1054 323.769C1053.16 320.661 1051.69 317.791 1049.58 315.159 1047.46 312.526 1044.65 310.404 1041.13 308.792 1037.61 307.18 1033.33 306.352 1028.28 306.306 1021.26 306.382 1015.52 307.867 1011.05 310.763 1006.58 313.658 1004.29 317.508 1004.19 322.314 1004.08 326.331 1005.59 329.643 1008.7 332.25 1011.81 334.858 1016.88 336.942 1023.91 338.503L1047.73 343.597C1060.89 346.435 1070.72 350.968 1077.22 357.194 1083.71 363.421 1086.97 371.5 1087 381.433 1086.88 390.316 1084.3 398.088 1079.26 404.751 1074.21 411.413 1067.23 416.605 1058.32 420.327 1049.41 424.049 1039.09 425.94 1027.37 426 1010.14 425.901 996.379 422.301 986.099 415.199 975.82 408.097 969.608 398.085 967.464 385.162L999.553 382.07C1001 388.357 1004.08 393.109 1008.81 396.327 1013.54 399.544 1019.7 401.158 1027.28 401.17 1035.2 401.069 1041.49 399.474 1046.14 396.383 1050.79 393.293 1053.17 389.31 1053.28 384.435 1053.29 380.486 1051.76 377.196 1048.67 374.566 1045.59 371.936 1040.85 369.92 1034.46 368.518L1010.64 363.515C997.269 360.72 987.36 356.01 980.918 349.384 974.475 342.757 971.294 334.34 971.373 324.133 971.419 315.478 973.792 307.988 978.494 301.664 983.195 295.34 989.771 290.451 998.219 286.997 1006.67 283.543 1016.54 281.794 1027.82 281.749ZM668.458 281.749C680.064 281.712 690.669 284.18 700.274 289.153 709.879 294.126 717.576 301.822 723.363 312.242 729.15 322.661 732.12 336.023 732.271 352.328L732.271 362.424 635.007 362.424C635.281 374.47 638.595 383.781 644.949 390.358 651.303 396.935 659.866 400.266 670.64 400.351 677.797 400.34 683.936 398.816 689.059 395.781 694.182 392.745 697.89 388.266 700.183 382.343L730.908 385.799C728.929 393.94 725.23 401.012 719.811 407.014 714.392 413.017 707.488 417.67 699.099 420.974 690.71 424.278 681.073 425.953 670.186 426 656.099 425.926 644.003 422.972 633.899 417.137 623.795 411.303 616.029 403.033 610.601 392.327 605.174 381.622 602.431 368.925 602.373 354.238 602.448 339.771 605.197 327.12 610.618 316.284 616.04 305.448 623.683 297.008 633.549 290.962 643.414 284.916 655.051 281.845 668.458 281.749ZM420 237 450.179 237 537.808 363.97 539.445 363.97 539.445 237 572.987 237 572.987 423.271 542.99 423.271 455.27 296.392 453.724 296.392 453.724 423.271 420 423.271Z" fill-rule="evenodd"/></g></svg>