<svg width="1514" height="379" xmlns="http://www.w3.org/2000/svg" xmlns:xlink="http://www.w3.org/1999/xlink" overflow="hidden"><defs><clipPath id="clip0"><path d="M72 76 1586 76 1586 455 72 455Z" fill-rule="evenodd" clip-rule="evenodd"/></clipPath></defs><g clip-path="url(#clip0)" transform="translate(-72 -76)"><rect x="73" y="77" width="1512" height="377" fill="#F5F5F5"/><path d="M345.142 199.308C342.5 199.338 340.189 199.948 338.208 201.138 336.227 202.328 334.661 203.916 333.512 205.902 332.362 207.888 331.713 210.091 331.565 212.511L357.915 212.511C357.875 209.942 357.323 207.668 356.258 205.691 355.194 203.713 353.711 202.161 351.811 201.032 349.911 199.904 347.688 199.329 345.142 199.308ZM376.997 189.726 390.465 189.726 400.319 229.225 400.829 229.225 410.902 189.726 424.224 189.726 434.296 229.006 434.844 229.006 444.552 189.726 458.055 189.726 442.18 245.903 428.421 245.903 417.91 207.939 417.143 207.939 406.632 245.903 392.837 245.903ZM489.241 188.994C495.815 189.049 500.988 190.457 504.761 193.218 508.534 195.98 510.879 199.765 511.796 204.575L499.752 205.891C499.415 204.642 498.823 203.488 497.974 202.429 497.126 201.37 495.995 200.517 494.583 199.869 493.171 199.221 491.451 198.887 489.423 198.869 486.607 198.9 484.302 199.497 482.507 200.661 480.713 201.825 479.795 203.374 479.752 205.306 479.71 206.921 480.314 208.253 481.563 209.302 482.812 210.35 484.848 211.188 487.672 211.816L497.234 213.864C502.519 215.006 506.465 216.828 509.072 219.332 511.679 221.836 512.989 225.085 513 229.079 512.952 232.651 511.916 235.776 509.891 238.455 507.866 241.134 505.064 243.222 501.486 244.719 497.908 246.215 493.765 246.976 489.059 247 482.139 246.96 476.616 245.513 472.489 242.657 468.362 239.801 465.868 235.775 465.008 230.578L477.891 229.335C478.471 231.863 479.71 233.774 481.609 235.068 483.507 236.362 485.978 237.011 489.022 237.015 492.203 236.975 494.728 236.333 496.595 235.091 498.462 233.848 499.417 232.246 499.46 230.286 499.467 228.698 498.851 227.375 497.612 226.318 496.374 225.26 494.471 224.449 491.905 223.885L482.343 221.874C476.974 220.75 472.996 218.856 470.409 216.191 467.822 213.527 466.545 210.142 466.577 206.038 466.595 202.557 467.548 199.546 469.436 197.002 471.323 194.46 473.963 192.494 477.355 191.105 480.748 189.716 484.709 189.012 489.241 188.994ZM344.959 188.994C349.619 188.98 353.877 189.972 357.733 191.972 361.589 193.971 364.679 197.066 367.003 201.256 369.327 205.446 370.519 210.819 370.58 217.375L370.58 221.435 331.529 221.435C331.639 226.279 332.97 230.023 335.521 232.668 338.071 235.312 341.51 236.652 345.835 236.686 348.709 236.682 351.174 236.069 353.23 234.848 355.287 233.628 356.776 231.827 357.697 229.445L370.032 230.834C369.238 234.108 367.753 236.952 365.577 239.366 363.401 241.779 360.629 243.65 357.261 244.979 353.893 246.308 350.024 246.981 345.653 247 339.997 246.97 335.141 245.782 331.084 243.436 327.027 241.09 323.909 237.764 321.73 233.46 319.551 229.155 318.45 224.049 318.427 218.143 318.457 212.326 319.56 207.239 321.737 202.881 323.914 198.524 326.983 195.13 330.943 192.699 334.904 190.268 339.576 189.033 344.959 188.994ZM245.205 171 257.322 171 292.505 222.057 293.161 222.057 293.161 171 306.628 171 306.628 245.903 294.585 245.903 259.366 194.883 258.746 194.883 258.746 245.903 245.205 245.903ZM149 171 213.1 171 213.1 185.918 190.104 185.918 190.104 247 172.033 247 172.033 185.918 149 185.918Z" fill-rule="evenodd"/><text font-family="Inter,Inter_MSFontService,sans-serif" font-weight="400" font-size="50" transform="translate(158.261 318)">Learn more news and latest events from <tspan x="963.66" y="0">tcps</tspan><tspan fill="#0E78EC" font-size="33" x="-0.000106812" y="55">Read more &gt;</tspan></text></g></svg>