<svg width="1890" height="1890" xmlns="http://www.w3.org/2000/svg" xmlns:xlink="http://www.w3.org/1999/xlink" overflow="hidden"><defs><clipPath id="clip0"><path d="M0 0 1890 0 1890 1890 0 1890Z" fill-rule="evenodd" clip-rule="evenodd"/></clipPath></defs><g clip-path="url(#clip0)"><rect x="0" y="0" width="1890" height="1890" fill="#FFFFFF"/><path d="M945 94.5313C475.299 94.5313 94.5313 475.299 94.5313 945 94.5313 1414.7 475.299 1795.47 945 1795.47 1414.7 1795.47 1795.47 1414.7 1795.47 945 1795.47 475.299 1414.7 94.5313 945 94.5313ZM945 0C1466.91 0 1890 423.091 1890 945 1890 1466.91 1466.91 1890 945 1890 423.091 1890 0 1466.91 0 945 0 423.091 423.091 0 945 0Z" fill-rule="evenodd"/><path d="M945 1228.21C996.915 1228.21 1039 1270.47 1039 1322.6 1039 1374.74 996.915 1417 945 1417 893.085 1417 851 1374.74 851 1322.6 851 1270.47 893.085 1228.21 945 1228.21ZM882.333 473 1007.67 473 1007.67 1102.3 882.333 1102.3Z" fill-rule="evenodd"/></g></svg>