<svg width="1892" height="1892" xmlns="http://www.w3.org/2000/svg" xmlns:xlink="http://www.w3.org/1999/xlink" overflow="hidden"><defs><clipPath id="clip0"><path d="M-1-1 1891-1 1891 1891-1 1891Z" fill-rule="evenodd" clip-rule="evenodd"/></clipPath></defs><g clip-path="url(#clip0)" transform="translate(1 1)"><rect x="0" y="0" width="1890" height="1890" fill="#FFFFFF"/><path d="M945 94.5313C475.299 94.5313 94.5313 475.299 94.5313 945 94.5313 1414.7 475.299 1795.47 945 1795.47 1414.7 1795.47 1795.47 1414.7 1795.47 945 1795.47 475.299 1414.7 94.5313 945 94.5313ZM945 0C1466.91 0 1890 423.091 1890 945 1890 1466.91 1466.91 1890 945 1890 423.091 1890 0 1466.91 0 945 0 423.091 423.091 0 945 0Z" fill-rule="evenodd"/><path d="M944.5 1228.01C996.691 1228.01 1039 1270.32 1039 1322.5 1039 1374.69 996.691 1417 944.5 1417 892.309 1417 850 1374.69 850 1322.5 850 1270.32 892.309 1228.01 944.5 1228.01ZM881.5 472 1007.5 472 1007.5 1101.97 881.5 1101.97Z" fill-rule="evenodd"/></g></svg>